<svg xmlns="http://www.w3.org/2000/svg" viewBox="0 0 70 40">
  <g>
    <path d="M40.1,40l-5.05-5-5,5H40.1M16.75,40l-5.1-5L10.2,36.45Q8.4,38.21,6.6,40H16.75m41.6-5L53.3,40h7.05a14.9,14.9,0,0,0,2.85-.25Z" fill="#bd8958"/>
    <path d="M70,22V17.5L58.35,10.55l-11.7,7-11.6-6.95-11.7,7-11.7-6.95L0,17.5V22l11.65-8.75L23.35,22l11.7-8.75L46.65,22l11.7-8.75Z" fill="#8bc92a"/>
    <path d="M70,28.5V22L58.35,13.25,46.65,22l-11.6-8.75L23.35,22l-11.7-8.75L0,22v6.5L11.65,17l11.7,11.5L35.05,17l11.6,11.5L58.35,17Z" fill="#bb8044"/>
    <path d="M68.3,36.8l0,0c.3-.5.58-1,.85-1.55a12,12,0,0,0,.8-4.3V28.5L58.35,17,46.65,28.5,35.05,17,23.35,28.5,11.65,17,0,28.5v10L11.65,27l11.7,11.5L35.05,27l11.6,11.5L58.35,27l9.95,9.85Z" fill="#c58f5c"/>
    <path d="M53.3,40l5.05-5,4.85,4.75a8,8,0,0,0,4.9-2.65,1.82,1.82,0,0,1,.2-.25L58.35,27,46.65,38.5,35.05,27,23.35,38.5,11.65,27,0,38.5V40H6.6q1.8-1.8,3.6-3.55L11.65,35l5.1,5H30l5-5,5.05,5Z" fill="#c99869"/>
    <path d="M70,11.15v-2Q69.85,4.24,67.15,2A10.21,10.21,0,0,0,60.9,0H0V2H60.9a10.21,10.21,0,0,1,6.25,2Q69.85,6.25,70,11.15Z" fill="#93db24"/>
    <path d="M70,17.5V11.15Q69.85,6.24,67.15,4A10.21,10.21,0,0,0,60.9,2H0V17.5l11.65-6.95,11.7,7,11.7-6.95,11.6,7,11.7-6.95Z" fill="#80be1f"/>
  </g>
</svg>
