<svg xmlns="http://www.w3.org/2000/svg" viewBox="0 0 70 70">
  <g>
    <path d="M0,0V11.7L1.8,10a0,0,0,0,1-.05,0L11.7,0H0M23.4,68.55,11.7,57,1.75,66.9a0,0,0,0,0,.05,0L0,68.7V70H70V68.65L68.25,66.9a0,0,0,0,0,0-.05L58.4,57,46.7,68.55,35.1,57,23.4,68.55m0-30L11.65,27.05,0,38.5v8H.05q5.06-5.05,10.2-10l1.4-1.5,11.7,11.5L35.05,35l11.6,11.5L58.35,35,70,46.5v-8L58.35,27.05,46.65,38.5,35.05,27.05,23.35,38.5m0-27L35.1,0H11.7L23.4,11.5m23.3,0L58.4,0H35.1L46.7,11.5M68.25,9.9,70,11.65V0H58.4l9.9,9.85A0,0,0,0,1,68.25,9.9Z" fill="#c99869"/>
    <path d="M11.7,57,23.4,68.55,35.1,57,46.7,68.55,58.4,57l9.9,9.85a0,0,0,0,1,0,.05L70,68.65v-7L68.25,59.9a0,0,0,0,0,0,0L58.4,50,46.7,61.55,35.1,50,23.4,61.55,11.7,50,1.75,59.9A0,0,0,0,0,1.8,60L0,61.7v7L1.8,67a0,0,0,0,1-.05,0l10-9.9m0-29.95L23.35,38.5l11.7-11.45L46.65,38.5l11.7-11.45L70,38.5V29.55L68.25,27.8a0,0,0,0,0,0-.05L58.4,17.9,46.7,29.45,35.1,17.9,23.4,29.45,11.7,17.9,1.75,27.8a0,0,0,0,0,.05.05L0,29.6v8.9L11.65,27.05m35-10.7,11.7-11.5L70,16.35v-4.7L68.25,9.9a0,0,0,0,0,0-.05L58.4,0,46.7,11.5,35.1,0,23.4,11.5,11.7,0,1.75,9.9a0,0,0,0,0,.05,0L0,11.7v4.65H.05q5.06-5.06,10.2-10l1.4-1.5,11.7,11.5,11.7-11.5Z" fill="#c58f5c"/>
    <path d="M11.65,35l-1.4,1.5Q5.11,41.45.05,46.5H0V61.7L1.8,60a0,0,0,0,1-.05-.05l10-9.9L23.4,61.55,35.1,50,46.7,61.55,58.4,50l9.9,9.85a0,0,0,0,1,0,0L70,61.65V46.5L58.35,35,46.65,46.5,35.05,35,23.35,46.5,11.65,35M58.35,4.85l-11.7,11.5L35.05,4.85l-11.7,11.5L11.65,4.85l-1.4,1.5q-5.14,5-10.2,10H0V29.6l1.8-1.75a0,0,0,0,1-.05-.05l10-9.9L23.4,29.45,35.1,17.9,46.7,29.45,58.4,17.9l9.9,9.85a0,0,0,0,1,0,.05L70,29.55V16.35Z" fill="#bd8958"/>
  </g>
</svg>
