<svg xmlns="http://www.w3.org/2000/svg" viewBox="0 0 70 40">
  <g>
    <path d="M58.35,35,53.3,40H63.45l-5.1-5m-46.7,0L10.2,36.45q-1.69,1.65-3.35,3.3a14.08,14.08,0,0,0,2.8.25h7.1l-5.1-5m23.4,0-5,5H40.1Z" fill="#bd8958"/>
    <path d="M35.05,27l11.6,11.5L58.35,27,70,38.5v-10L58.35,17,46.65,28.5,35.05,17,23.35,28.5,11.65,17,0,28.5v2.4a11.35,11.35,0,0,0,.85,4.3,7.87,7.87,0,0,0,.8,1.55l.05,0,10-9.8,11.7,11.5Z" fill="#c58f5c"/>
    <path d="M46.65,38.5,35.05,27,23.35,38.5,11.65,27l-10,9.8.05.05a1.82,1.82,0,0,1,.2.25,4.74,4.74,0,0,0,1,1,8.35,8.35,0,0,0,3.9,1.65q1.65-1.65,3.35-3.3L11.65,35l5.1,5H30l5-5,5.05,5H53.3l5.05-5,5.1,5H70V38.5L58.35,27Z" fill="#c99869"/>
    <path d="M70,17.5V2H9.1A10.21,10.21,0,0,0,2.85,4Q.15,6.25,0,11.15V17.5l11.65-6.95,11.7,7,11.7-6.95,11.6,7,11.7-6.95Z" fill="#80be1f"/>
    <path d="M70,2V0H9.1A10.21,10.21,0,0,0,2.85,2Q.15,4.25,0,9.15v2Q.15,6.24,2.85,4A10.21,10.21,0,0,1,9.1,2Z" fill="#93db24"/>
    <path d="M58.35,13.25,70,22V17.5L58.35,10.55l-11.7,7-11.6-6.95-11.7,7-11.7-6.95L0,17.5V22l11.65-8.75L23.35,22l11.7-8.75L46.65,22Z" fill="#8bc92a"/>
    <path d="M70,22,58.35,13.25,46.65,22l-11.6-8.75L23.35,22l-11.7-8.75L0,22v6.5L11.65,17l11.7,11.5L35.05,17l11.6,11.5L58.35,17,70,28.5Z" fill="#bb8044"/>
  </g>
</svg>
