<svg xmlns="http://www.w3.org/2000/svg" viewBox="0 0 70 40">
  <g>
    <path d="M40.1,40l-5.05-5-5,5H40.1M16.75,40l-5.1-5L10.2,36.45Q8.4,38.21,6.6,40H16.75M53.3,40H63.45l-5.1-5Z" fill="#bd8958"/>
    <path d="M70,17.5,58.35,10.55l-11.7,7-11.6-6.95-11.7,7-11.7-6.95L0,17.5V22l11.65-8.75L23.35,22l11.7-8.75L46.65,22l11.7-8.75L70,22Z" fill="#8bc92a"/>
    <path d="M70,38.5v-10L58.35,17,46.65,28.5,35.05,17,23.35,28.5,11.65,17,0,28.5v10L11.65,27l11.7,11.5L35.05,27l11.6,11.5L58.35,27Z" fill="#c58f5c"/>
    <path d="M70,28.5V22L58.35,13.25,46.65,22l-11.6-8.75L23.35,22l-11.7-8.75L0,22v6.5L11.65,17l11.7,11.5L35.05,17l11.6,11.5L58.35,17Z" fill="#bb8044"/>
    <path d="M53.3,40l5.05-5,5.1,5H70V38.5L58.35,27,46.65,38.5,35.05,27,23.35,38.5,11.65,27,0,38.5V40H6.6q1.8-1.8,3.6-3.55L11.65,35l5.1,5H30l5-5,5.05,5Z" fill="#c99869"/>
    <path d="M70,17.5V2H0V17.5l11.65-6.95,11.7,7,11.7-6.95,11.6,7,11.7-6.95Z" fill="#80be1f"/>
    <path d="M70,2V0H0V2Z" fill="#93db24"/>
  </g>
</svg>
