<svg xmlns="http://www.w3.org/2000/svg" viewBox="0 0 70 70">
  <g>
    <path d="M1.8,66.9A8.12,8.12,0,0,0,3,68.1,10.12,10.12,0,0,0,9.15,70H70V68.6l-1.75-1.75a0,0,0,0,0,0,0L58.4,57,46.7,68.5,35.1,57,23.4,68.5,11.7,57,1.75,66.85a0,0,0,0,0,.05.05M0,38.5v8H.05q5.06-5.05,10.15-10L11.65,35l11.7,11.5L35.05,35l11.6,11.5L58.35,35,70,46.5v-8L58.35,27,46.65,38.5,35.05,27,23.35,38.5,11.65,27Z" fill="#c99869"/>
    <path d="M1.75,59.85a0,0,0,0,0,.05,0L.05,61.65a10,10,0,0,0,1.7,5.2L11.7,57,23.4,68.5,35.1,57,46.7,68.5,58.4,57l9.9,9.8a0,0,0,0,1,0,0L70,68.6v-7l-1.75-1.75a0,0,0,0,0,0-.05L58.4,50,46.7,61.5,35.1,50,23.4,61.5,11.7,50,1.75,59.85M0,28.5v10L11.65,27l11.7,11.5L35.05,27l11.6,11.5L58.35,27,70,38.5v-10L58.35,17,46.65,28.5,35.05,17,23.35,28.5,11.65,17Z" fill="#c58f5c"/>
    <path d="M0,22v6.5L11.65,17l11.7,11.5L35.05,17l11.6,11.5L58.35,17,70,28.5V22L58.35,13.25,46.65,22l-11.6-8.75L23.35,22l-11.7-8.75Z" fill="#bb8044"/>
    <path d="M0,60.85a7.16,7.16,0,0,0,.05.8L1.8,59.9a0,0,0,0,1-.05,0L11.7,50,23.4,61.5,35.1,50,46.7,61.5,58.4,50l9.9,9.8a0,0,0,0,1,0,.05L70,61.6V46.5L58.35,35,46.65,46.5,35.05,35,23.35,46.5,11.65,35,10.2,36.45q-5.1,5-10.15,10H0Z" fill="#bd8958"/>
    <path d="M0,11.2v6.3l11.65-6.95,11.7,7,11.7-6.95,11.6,7,11.7-6.95L70,17.5V2H9.1A10,10,0,0,0,2.9,4Q.16,6.3,0,11.2Z" fill="#80be1f"/>
    <path d="M0,9.2v2Q.15,6.3,2.9,4A10,10,0,0,1,9.1,2H70V0H9.1A10,10,0,0,0,2.9,2Q.16,4.3,0,9.2Z" fill="#93db24"/>
    <path d="M0,17.5V22l11.65-8.75L23.35,22l11.7-8.75L46.65,22l11.7-8.75L70,22V17.5L58.35,10.55l-11.7,7-11.6-6.95-11.7,7-11.7-6.95Z" fill="#8bc92a"/>
  </g>
</svg>
