<svg xmlns="http://www.w3.org/2000/svg" viewBox="0 0 70 40">
  <g>
    <path d="M63.2,39.75,58.35,35,53.3,40h7.05a14.9,14.9,0,0,0,2.85-.25M11.65,35,10.2,36.45q-1.69,1.65-3.35,3.3a14.08,14.08,0,0,0,2.8.25h7.1l-5.1-5M30,40H40.1l-5.05-5Z" fill="#bd8958"/>
    <path d="M0,22v6.5L11.65,17l11.7,11.5L35.05,17l11.6,11.5L58.35,17,70,28.5V22L58.35,13.25,46.65,22l-11.6-8.75L23.35,22l-11.7-8.75Z" fill="#bb8044"/>
    <path d="M1.7,36.8l.05.05a1.82,1.82,0,0,1,.2.25,4.74,4.74,0,0,0,1,1,8.35,8.35,0,0,0,3.9,1.65q1.65-1.65,3.35-3.3L11.65,35l5.1,5H30l5-5,5.05,5H53.3l5.05-5,4.85,4.75a8,8,0,0,0,4.9-2.65,1.82,1.82,0,0,1,.2-.25L58.35,27,46.65,38.5,35.05,27,23.35,38.5,11.65,27Z" fill="#c99869"/>
    <path d="M.85,35.2a7.87,7.87,0,0,0,.8,1.55l.05,0,10-9.8,11.7,11.5L35.05,27l11.6,11.5L58.35,27l9.95,9.85V36.8l0,0c.3-.5.58-1,.85-1.55a12,12,0,0,0,.8-4.3V28.5L58.35,17,46.65,28.5,35.05,17,23.35,28.5,11.65,17,0,28.5v2.4A11.35,11.35,0,0,0,.85,35.2Z" fill="#c58f5c"/>
    <path d="M0,9.15v2Q.15,6.24,2.85,4A10.21,10.21,0,0,1,9.1,2H60.9a10.21,10.21,0,0,1,6.25,2q2.7,2.25,2.85,7.15v-2Q69.85,4.24,67.15,2A10.21,10.21,0,0,0,60.9,0H9.1A10.21,10.21,0,0,0,2.85,2Q.15,4.25,0,9.15Z" fill="#93db24"/>
    <path d="M0,17.5V22l11.65-8.75L23.35,22l11.7-8.75L46.65,22l11.7-8.75L70,22V17.5L58.35,10.55l-11.7,7-11.6-6.95-11.7,7-11.7-6.95Z" fill="#8bc92a"/>
    <path d="M0,11.15V17.5l11.65-6.95,11.7,7,11.7-6.95,11.6,7,11.7-6.95L70,17.5V11.15Q69.85,6.24,67.15,4A10.21,10.21,0,0,0,60.9,2H9.1A10.21,10.21,0,0,0,2.85,4Q.15,6.25,0,11.15Z" fill="#80be1f"/>
  </g>
</svg>
