<svg xmlns="http://www.w3.org/2000/svg" viewBox="0 0 350 425" width="70px" height="85px">
  <g>
    <path d="M300.79,425H49.21A49.21,49.21,0,0,1,0,375.79V125A50,50,0,0,1,50,75H300.79A49.21,49.21,0,0,1,350,124.21V375.79A49.21,49.21,0,0,1,300.79,425Z" transform="translate(0 0)" fill="#ad6430"/>
    <path d="M219.78,375.7H0V125A50,50,0,0,1,50,75H269.78V325.7A50,50,0,0,1,219.78,375.7Z" transform="translate(0 0)" fill="#c16f36"/>
    <path d="M30.08,174.7a29.35,29.35,0,1,0,49.76,0Z" transform="translate(0 0)" fill="#fff"/>
    <path d="M131.43,175.55a29.34,29.34,0,1,0,49.76,0Z" transform="translate(0 0)" fill="#fff"/>
    <circle cx="54.96" cy="194.85" r="10" fill="#36240d"/>
    <circle cx="156.31" cy="194.85" r="10" fill="#36240d"/>
    <path d="M137.61,76.87h-80V40a40,40,0,0,1,40-40h0a40,40,0,0,1,40,40Z" transform="translate(0 0)" fill="#c16f36"/>
    <path d="M115.11,75h-35V42.5A17.51,17.51,0,0,1,97.61,25h0a17.5,17.5,0,0,1,17.5,17.5Z" transform="translate(0 0)" fill="#9a592b"/>
    <path d="M251.17,76.87h-80V40a40,40,0,0,1,40-40h0a40,40,0,0,1,40,40Z" transform="translate(0 0)" fill="#c16f36"/>
    <path d="M228.67,75h-35V42.5A17.51,17.51,0,0,1,211.17,25h0a17.5,17.5,0,0,1,17.5,17.5Z" transform="translate(0 0)" fill="#9a592b"/>
    <path d="M127.89,326H84.59A5,5,0,0,1,80,322.9l-11-26.82a15.06,15.06,0,0,1-.88-8.42L80.49,220.1a5,5,0,0,1,4.92-4.1h41.67a5,5,0,0,1,4.92,4.09l12.46,67.56a15,15,0,0,1-.88,8.44l-11.06,26.82A5,5,0,0,1,127.89,326Z" transform="translate(0 0)" fill="#f3bd84"/>
    <rect x="101.61" y="290.33" width="10" height="35.67" fill="#494949"/>
    <path d="M131.07,252.7a191.43,191.43,0,0,0-48.92,0,4.37,4.37,0,0,0-4.37,4.37v10.08A23.85,23.85,0,0,0,101.63,291h10a23.85,23.85,0,0,0,23.85-23.85V257.07A4.37,4.37,0,0,0,131.07,252.7Z" transform="translate(0 0)" fill="#494949"/>
  </g>
</svg>
