<svg xmlns="http://www.w3.org/2000/svg" viewBox="0 0 66.96 95.14">
  <g>
    <g>
      <path d="M54.31,79.75a14.79,14.79,0,0,1-4.75,4.3,28.41,28.41,0,0,1-3,1.55,12.42,12.42,0,0,1,6.45,7.75c1.3,1.2,2.61,1.17,3.95-.1a8.65,8.65,0,0,0,1.4-4.85q0-4.45-4.1-8.65m-35.15,4.3c-.34-.2-.65-.4-.95-.6a13.29,13.29,0,0,1-5.55,8,2.71,2.71,0,0,0,1.6,3.35,8.3,8.3,0,0,0,5.15-.15q4.65-1.45,7.45-7.55A25.16,25.16,0,0,1,19.16,84.05Z" fill="#6fc4a9"/>
      <path d="M54.31,79.75a37.52,37.52,0,0,0-7.8-5.7,12.86,12.86,0,0,0-5.7,9.9,17.82,17.82,0,0,1,5.8,1.65,28.41,28.41,0,0,0,3-1.55,14.79,14.79,0,0,0,4.75-4.3m-25-.85a13.26,13.26,0,0,0-11.2-2.25,16.82,16.82,0,0,1,.1,6.8c.3.2.61.4.95.6a25.16,25.16,0,0,0,7.7,3A39.87,39.87,0,0,0,29.31,78.9Z" fill="#64b89d"/>
    </g>
    <path d="M65.36,70.35a2.27,2.27,0,0,0,.3-1.85q-3-12.2-15.6-13.65a.51.51,0,0,0-.3,0l2.35,8.9q6.69-2,8.7,6A2.43,2.43,0,0,0,62,71.25a2.23,2.23,0,0,0,1.85.3,2.49,2.49,0,0,0,1.55-1.2M.11,68.45a2.18,2.18,0,0,0,.25,1.9,2.63,2.63,0,0,0,1.55,1.2,2.37,2.37,0,0,0,1.9-.3,2.54,2.54,0,0,0,1.1-1.55q2-7.95,8.7-6L16,54.85a.36.36,0,0,0-.25,0Q3,56.31.11,68.45Z" fill="#6fc4a9"/>
    <g>
      <path d="M49.56,18.4a20.83,20.83,0,0,1,6.3,14.7V31.6a20.72,20.72,0,0,0-6.3-15.2,20.72,20.72,0,0,0-15.2-6.3,20.7,20.7,0,0,0-15.2,6.3,20.72,20.72,0,0,0-6.3,15.2v1.5a20.74,20.74,0,0,1,6.3-14.7,20.7,20.7,0,0,1,15.2-6.3A20.72,20.72,0,0,1,49.56,18.4Z" fill="#89d9c0"/>
      <path d="M55.86,33.1a20.83,20.83,0,0,0-6.3-14.7,20.72,20.72,0,0,0-15.2-6.3,20.7,20.7,0,0,0-15.2,6.3,20.74,20.74,0,0,0-6.3,14.7V72.25q.15,5.3,6.3,9a28.91,28.91,0,0,0,15.2,3.8,28.94,28.94,0,0,0,15.2-3.8q6.15-3.75,6.3-9Z" fill="#6fc4a9"/>
    </g>
    <path d="M53.21,43.05a4.8,4.8,0,0,0-1.5-3.5,4.71,4.71,0,0,0-3.45-1.45,4.87,4.87,0,0,0-5,4.95,4.6,4.6,0,0,0,1.4,3.4,4.91,4.91,0,0,0,3.6,1.5,4.65,4.65,0,0,0,3.45-1.5,4.48,4.48,0,0,0,1.5-3.4m-19.35,7.2a1.25,1.25,0,0,0-.85-.1.75.75,0,0,0-.55.5.93.93,0,0,0-.1.75A4.7,4.7,0,0,0,34.26,54a8,8,0,0,0,5.1,1.65,7.94,7.94,0,0,0,5-1.65,6.66,6.66,0,0,0,2-2.45,1.1,1.1,0,0,0,0-.8,1.09,1.09,0,0,0-.6-.5.87.87,0,0,0-.8,0,.73.73,0,0,0-.5.55,4.63,4.63,0,0,1-1.3,1.65,6.17,6.17,0,0,1-3.8,1.2,6.08,6.08,0,0,1-3.85-1.2,3.42,3.42,0,0,1-1.2-1.6.77.77,0,0,0-.45-.55m.15-3.8a4.48,4.48,0,0,0,1.5-3.4,4.8,4.8,0,0,0-1.5-3.5,4.71,4.71,0,0,0-3.45-1.45,4.87,4.87,0,0,0-5,4.95,4.6,4.6,0,0,0,1.4,3.4,4.91,4.91,0,0,0,3.6,1.5A4.65,4.65,0,0,0,34,46.45Z" fill="#347e67"/>
    <path d="M45.91,74a2,2,0,1,0,1.45.6,2,2,0,0,0-1.45-.6m4.9-2.6a2.9,2.9,0,0,0,0-4.1,2.9,2.9,0,1,0,0,4.1M33.11,77.1a4,4,0,0,0,6.75,2.8,4,4,0,0,0,0-5.6,4,4,0,0,0-6.75,2.8Z" fill="#8bcfba" fill-opacity="0.5"/>
    <g>
      <path d="M67,32.55c0-.6,0-1.2,0-1.8a31.19,31.19,0,0,0-9.45-21.2A31.56,31.56,0,0,0,34.36,0a31.23,31.23,0,0,0-23,9.55,31,31,0,0,0-9.55,21.2c0,.6-.05,1.2-.05,1.8s0,1.18.05,1.75A34.92,34.92,0,0,0,2.56,40a31.47,31.47,0,0,0,8.8,15.7,31.33,31.33,0,0,0,23,9.5,31.67,31.67,0,0,0,23.1-9.5A31.68,31.68,0,0,0,66.21,40a40,40,0,0,0,.7-5.65c0-.57,0-1.15,0-1.75m-5,0c0,.6,0,1.18-.05,1.75A28.6,28.6,0,0,1,61.06,40,26.74,26.74,0,0,1,53.91,52.1a26.83,26.83,0,0,1-19.55,8,26.48,26.48,0,0,1-19.45-8A27,27,0,0,1,7.71,40a25.94,25.94,0,0,1-.9-5.65c0-.57,0-1.15,0-1.75s0-1.2,0-1.8a26.21,26.21,0,0,1,8.1-17.65A26.41,26.41,0,0,1,34.36,5a26.76,26.76,0,0,1,19.55,8.1,26.41,26.41,0,0,1,8,17.65C61.94,31.35,62,32,62,32.55Z" fill="#fff"/>
      <path d="M61.91,34.3c0-.57.05-1.15.05-1.75s0-1.2-.05-1.8a26.41,26.41,0,0,0-8-17.65A26.76,26.76,0,0,0,34.36,5a26.41,26.41,0,0,0-19.45,8.1,26.21,26.21,0,0,0-8.1,17.65c0,.6,0,1.2,0,1.8s0,1.18,0,1.75A25.94,25.94,0,0,0,7.71,40a27,27,0,0,0,7.2,12.15,26.48,26.48,0,0,0,19.45,8,26.83,26.83,0,0,0,19.55-8A26.74,26.74,0,0,0,61.06,40a28.6,28.6,0,0,0,.85-5.65m-2.5-.15v.05A25.13,25.13,0,0,1,58.46,40q-20.31,7.54-48.15,0a26.44,26.44,0,0,1-1-5.8c0-.53-.05-1.07-.05-1.6s0-1.12.05-1.65a23.71,23.71,0,0,1,7.35-16l.05-.05A24,24,0,0,1,34.36,7.5a24.3,24.3,0,0,1,17.8,7.4,24,24,0,0,1,7.25,16c0,.53.05,1.08.05,1.65S59.44,33.62,59.41,34.15Z" fill="#fff" fill-opacity="0.2"/>
      <path d="M59.41,34.2v-.05c0-.53.05-1.07.05-1.6s0-1.12-.05-1.65a24,24,0,0,0-7.25-16,24.3,24.3,0,0,0-17.8-7.4,24,24,0,0,0-17.65,7.35l-.05.05a23.71,23.71,0,0,0-7.35,16c0,.53-.05,1.08-.05,1.65s0,1.07.05,1.6a26.44,26.44,0,0,0,1,5.8q27.84,7.54,48.15,0A25.13,25.13,0,0,0,59.41,34.2Z" fill="#fff" fill-opacity="0.3"/>
    </g>
  </g>
</svg>
