<svg xmlns="http://www.w3.org/2000/svg" viewBox="0 0 67.13 95.31">
  <g>
    <g>
      <path d="M54.1,74.5q0,4.75-4.8,8.3a13.19,13.19,0,0,1,3.25,7.85A2.73,2.73,0,0,0,56.3,91a8.87,8.87,0,0,0,2.4-4.55q1.24-5.65-4.6-12.35v.4M17.4,83.8a21.41,21.41,0,0,1-2.65-2A12.71,12.71,0,0,1,11.25,92q-.55,2.55,2.1,3.35a8.76,8.76,0,0,0,4.85-1.25q3.86-2.1,5.45-7.6A25.51,25.51,0,0,1,17.4,83.8Z" fill="#6fc4a9"/>
      <path d="M54.1,74.1A48,48,0,0,0,50,70a13.08,13.08,0,0,0-7.6,8.55,15.56,15.56,0,0,1,6.9,4.25q4.8-3.55,4.8-8.3v-.4M24.75,76.6a13,13,0,0,0-11.45,0,17.58,17.58,0,0,1,1.45,5.25,21.41,21.41,0,0,0,2.65,2,25.51,25.51,0,0,0,6.25,2.65A35.07,35.07,0,0,0,24.75,76.6Z" fill="#64b89d"/>
    </g>
    <g>
      <path d="M47.8,18.4a20.74,20.74,0,0,1,6.3,14.7V31.6a20.72,20.72,0,0,0-6.3-15.2,20.72,20.72,0,0,0-15.2-6.3,20.72,20.72,0,0,0-15.2,6.3,20.72,20.72,0,0,0-6.3,15.2v1.5a20.74,20.74,0,0,1,6.3-14.7,20.72,20.72,0,0,1,15.2-6.3A20.72,20.72,0,0,1,47.8,18.4Z" fill="#89d9c0"/>
      <path d="M54.1,33.1a20.74,20.74,0,0,0-6.3-14.7,20.72,20.72,0,0,0-15.2-6.3,20.72,20.72,0,0,0-15.2,6.3,20.74,20.74,0,0,0-6.3,14.7V72.25q.15,5.3,6.3,9a28.94,28.94,0,0,0,15.2,3.8,28.94,28.94,0,0,0,15.2-3.8q6.15-3.75,6.3-9Z" fill="#6fc4a9"/>
    </g>
    <path d="M51.45,43.05a4.8,4.8,0,0,0-1.5-3.5A4.71,4.71,0,0,0,46.5,38.1a4.87,4.87,0,0,0-5,4.95,4.64,4.64,0,0,0,1.4,3.4A4.91,4.91,0,0,0,46.5,48,4.65,4.65,0,0,0,50,46.45a4.48,4.48,0,0,0,1.5-3.4M25.2,39.55a5,5,0,0,0-1.4,3.5,4.64,4.64,0,0,0,1.4,3.4A4.91,4.91,0,0,0,28.8,48a4.65,4.65,0,0,0,3.45-1.5,4.48,4.48,0,0,0,1.5-3.4,4.8,4.8,0,0,0-1.5-3.5A4.71,4.71,0,0,0,28.8,38.1,5,5,0,0,0,25.2,39.55Z" fill="#347e67"/>
    <path d="M35.8,51.8a2.53,2.53,0,0,0-.7,1.8,2.37,2.37,0,0,0,.7,1.75,2.45,2.45,0,0,0,1.8.75,2.56,2.56,0,0,0,2.5-2.5,2.45,2.45,0,0,0-.75-1.8,2.37,2.37,0,0,0-1.75-.7A2.53,2.53,0,0,0,35.8,51.8Z" fill="#347e67"/>
    <path d="M64,53.1a2.65,2.65,0,0,0-1.5,1.25q-4,7.15-10,3.45l-4.6,8a.33.33,0,0,0,.3,0q12.6,1.91,18.6-9.1a2.56,2.56,0,0,0,.25-1.9,2.68,2.68,0,0,0-1.2-1.5A2.52,2.52,0,0,0,64,53.1M1.15,72A2.48,2.48,0,0,0,3.7,74.45a2.3,2.3,0,0,0,1.75-.75,2.53,2.53,0,0,0,.7-1.8Q6,63.7,13,63.9V54.7a.51.51,0,0,0-.3.1Q.85,59.45,1.15,72Z" fill="#6fc4a9"/>
    <path d="M42.1,76a2,2,0,1,0,.6-1.45A2,2,0,0,0,42.1,76m6.95-8.75a2.9,2.9,0,1,0,.85,2,2.79,2.79,0,0,0-.85-2M32.5,79.9a4,4,0,1,0-1.15-2.8A3.8,3.8,0,0,0,32.5,79.9Z" fill="#8bcfba" fill-opacity="0.5"/>
    <g>
      <path d="M65.2,32.55c0-.6,0-1.2,0-1.8A31.19,31.19,0,0,0,55.7,9.55,31.56,31.56,0,0,0,32.6,0a31.23,31.23,0,0,0-23,9.55A31,31,0,0,0,.05,30.75c0,.6,0,1.2,0,1.8s0,1.18.05,1.75A34.92,34.92,0,0,0,.8,40a31.47,31.47,0,0,0,8.8,15.7,31.33,31.33,0,0,0,23,9.5,31.67,31.67,0,0,0,23.1-9.5A31.68,31.68,0,0,0,64.45,40a38.6,38.6,0,0,0,.7-5.65c0-.57,0-1.15,0-1.75m-5.05-1.8c0,.6.05,1.2.05,1.8s0,1.18-.05,1.75A27.89,27.89,0,0,1,59.3,40,26.65,26.65,0,0,1,52.15,52.1a26.81,26.81,0,0,1-19.55,8,26.49,26.49,0,0,1-19.45-8A27,27,0,0,1,6,40a25.94,25.94,0,0,1-.9-5.65c0-.57,0-1.15,0-1.75s0-1.2,0-1.8a26.21,26.21,0,0,1,8.1-17.65A26.42,26.42,0,0,1,32.6,5a26.74,26.74,0,0,1,19.55,8.1A26.41,26.41,0,0,1,60.15,30.75Z" fill="#fff"/>
      <path d="M60.2,32.55c0-.6,0-1.2-.05-1.8a26.41,26.41,0,0,0-8-17.65A26.74,26.74,0,0,0,32.6,5a26.42,26.42,0,0,0-19.45,8.1,26.21,26.21,0,0,0-8.1,17.65c0,.6,0,1.2,0,1.8s0,1.18,0,1.75A25.94,25.94,0,0,0,6,40a27,27,0,0,0,7.2,12.15,26.49,26.49,0,0,0,19.45,8,26.81,26.81,0,0,0,19.55-8A26.65,26.65,0,0,0,59.3,40a27.89,27.89,0,0,0,.85-5.65c0-.57.05-1.15.05-1.75m-2.55,1.6v.05A25.13,25.13,0,0,1,56.7,40q-20.3,7.54-48.15,0a27,27,0,0,1-1-5.8c0-.53,0-1.07,0-1.6s0-1.12,0-1.65a23.8,23.8,0,0,1,7.35-16l0-.05A24,24,0,0,1,32.6,7.5a24.28,24.28,0,0,1,17.8,7.4,24,24,0,0,1,7.25,16c0,.53.05,1.08.05,1.65S57.68,33.62,57.65,34.15Z" fill="#fff" fill-opacity="0.2"/>
      <path d="M57.65,34.2v-.05c0-.53.05-1.07.05-1.6s0-1.12-.05-1.65a24,24,0,0,0-7.25-16A24.28,24.28,0,0,0,32.6,7.5,24,24,0,0,0,15,14.85l0,.05a23.8,23.8,0,0,0-7.35,16c0,.53,0,1.08,0,1.65s0,1.07,0,1.6a27,27,0,0,0,1,5.8q27.86,7.54,48.15,0A25.13,25.13,0,0,0,57.65,34.2Z" fill="#fff" fill-opacity="0.3"/>
    </g>
  </g>
</svg>
