<svg xmlns="http://www.w3.org/2000/svg" viewBox="0 0 66.29 91.95">
  <g>
    <g>
      <path d="M51.34,77.7a18.43,18.43,0,0,1-2.45,1.75,24.58,24.58,0,0,1-8,3.1l.2,2a25.74,25.74,0,0,0,7.85-3,21.8,21.8,0,0,0,2.3-1.6l.15-2.15M13.64,75l-.3,1.55a14.45,14.45,0,0,0,5.15,4.9,23.26,23.26,0,0,0,3.6,1.8l.7-1.75a26.19,26.19,0,0,1-4.3-2A14.48,14.48,0,0,1,13.64,75Z" fill="#64b89d"/>
      <path d="M18.49,18.55a20.72,20.72,0,0,1,15.2-6.3,20.7,20.7,0,0,1,15.2,6.3,20.74,20.74,0,0,1,6.3,14.7v-1.5a20.72,20.72,0,0,0-6.3-15.2,20.7,20.7,0,0,0-15.2-6.3,20.72,20.72,0,0,0-15.2,6.3,20.72,20.72,0,0,0-6.3,15.2v1.5A20.83,20.83,0,0,1,18.49,18.55Z" fill="#89d9c0"/>
      <path d="M33.69,12.25a20.72,20.72,0,0,0-15.2,6.3,20.83,20.83,0,0,0-6.3,14.7V53.7c-.7.43-1.38.9-2,1.4-.36.27-.71.55-1.05.85Q1.74,62,0,72.5a2.79,2.79,0,0,0,.55,2.2,2.78,2.78,0,0,0,1.9,1.2,2.95,2.95,0,0,0,3.45-2.45q1.15-7.1,7-9.6A115.38,115.38,0,0,1,10.39,92h8.35l3.35-8.7a23.26,23.26,0,0,1-3.6-1.8,14.45,14.45,0,0,1-5.15-4.9l.3-1.55a14.48,14.48,0,0,0,4.85,4.45,26.19,26.19,0,0,0,4.3,2,31.92,31.92,0,0,0,10.9,1.75,34.62,34.62,0,0,0,7.15-.7,24.58,24.58,0,0,0,8-3.1,18.43,18.43,0,0,0,2.45-1.75l-.15,2.15a21.8,21.8,0,0,1-2.3,1.6,25.74,25.74,0,0,1-7.85,3l.9,7.45h8.35a143.58,143.58,0,0,1,3.2-22.7c.27-1.13.52-2.27.75-3.4a13,13,0,0,1,1.2,7.5,3,3,0,0,0,.65,2.15,3.15,3.15,0,0,0,2.1,1.1,2.78,2.78,0,0,0,2.1-.65,2.63,2.63,0,0,0,1.1-2q1-9.86-3.7-17.25a12.6,12.6,0,0,0-.75-1.15,24.59,24.59,0,0,0-1.75-2.15V33.25a20.74,20.74,0,0,0-6.3-14.7A20.7,20.7,0,0,0,33.69,12.25Z" fill="#6fc4a9"/>
    </g>
    <path d="M51.59,37.45A4.68,4.68,0,0,0,48.14,36a5,5,0,0,0-3.65,1.45,5.25,5.25,0,0,0-1.4,3.45V41a4.69,4.69,0,0,0,1.4,3.45A4.91,4.91,0,0,0,48.14,46a5.23,5.23,0,0,0,5-5v-.1a5,5,0,0,0-1.5-3.45m-19.5,12a5.37,5.37,0,0,0,2,2.75,8.26,8.26,0,0,0,5.4,1.8,8.38,8.38,0,0,0,5.4-1.8A7.46,7.46,0,0,0,47,49.55a1.39,1.39,0,0,0,0-.9,1,1,0,0,0-.65-.5.77.77,0,0,0-.85,0,.79.79,0,0,0-.5.6,5.72,5.72,0,0,1-1.4,1.8,7,7,0,0,1-8.15,0,3.84,3.84,0,0,1-1.25-1.75.76.76,0,0,0-.5-.6,1.16,1.16,0,0,0-.9-.15,1.11,1.11,0,0,0-.6.55,1.31,1.31,0,0,0-.1.85M30.14,36a5,5,0,0,0-3.65,1.45,5.25,5.25,0,0,0-1.4,3.45V41a4.69,4.69,0,0,0,1.4,3.45A4.91,4.91,0,0,0,30.14,46a4.56,4.56,0,0,0,3.45-1.55A4.52,4.52,0,0,0,35.09,41v-.1a5,5,0,0,0-1.5-3.45A4.68,4.68,0,0,0,30.14,36Z" fill="#347e67"/>
    <g>
      <path d="M66.24,30.75a31.19,31.19,0,0,0-9.45-21.2A31.56,31.56,0,0,0,33.69,0a31.24,31.24,0,0,0-23,9.55,31,31,0,0,0-9.55,21.2c0,.6,0,1.2,0,1.8s0,1.18,0,1.75A34.92,34.92,0,0,0,1.89,40a31.55,31.55,0,0,0,8.8,15.7,31.35,31.35,0,0,0,23,9.5,31.67,31.67,0,0,0,23.1-9.5A31.61,31.61,0,0,0,65.54,40a38.6,38.6,0,0,0,.7-5.65c0-.57.05-1.15.05-1.75s0-1.2-.05-1.8m-13-17.65a26.37,26.37,0,0,1,8,17.65c0,.6,0,1.2,0,1.8s0,1.18,0,1.75A27.89,27.89,0,0,1,60.39,40,26.65,26.65,0,0,1,53.24,52.1a26.81,26.81,0,0,1-19.55,8,26.49,26.49,0,0,1-19.45-8A27.21,27.21,0,0,1,7,40a25.94,25.94,0,0,1-.9-5.65c0-.57,0-1.15,0-1.75s0-1.2,0-1.8a26.21,26.21,0,0,1,8.1-17.65A26.42,26.42,0,0,1,33.69,5,26.74,26.74,0,0,1,53.24,13.1Z" fill="#fff"/>
      <path d="M61.24,30.75a26.37,26.37,0,0,0-8-17.65A26.74,26.74,0,0,0,33.69,5a26.42,26.42,0,0,0-19.45,8.1,26.21,26.21,0,0,0-8.1,17.65c0,.6,0,1.2,0,1.8s0,1.18,0,1.75A25.94,25.94,0,0,0,7,40a27.21,27.21,0,0,0,7.2,12.15,26.49,26.49,0,0,0,19.45,8,26.81,26.81,0,0,0,19.55-8A26.65,26.65,0,0,0,60.39,40a27.89,27.89,0,0,0,.85-5.65c0-.57,0-1.15,0-1.75s0-1.2,0-1.8M51.49,14.9a23.91,23.91,0,0,1,7.25,16c0,.53,0,1.08,0,1.65s0,1.07,0,1.6v.05a24.6,24.6,0,0,1-1,5.75q-20.3,7.54-48.15,0a27.67,27.67,0,0,1-1-5.8c0-.53-.05-1.07-.05-1.6s0-1.12.05-1.65A23.8,23.8,0,0,1,16,14.9l0-.05A24,24,0,0,1,33.69,7.5,24.26,24.26,0,0,1,51.49,14.9Z" fill="#fff" fill-opacity="0.2"/>
      <path d="M58.74,30.9a23.91,23.91,0,0,0-7.25-16,24.26,24.26,0,0,0-17.8-7.4A24,24,0,0,0,16,14.85l0,.05a23.8,23.8,0,0,0-7.35,16c0,.53-.05,1.08-.05,1.65s0,1.07.05,1.6a27.67,27.67,0,0,0,1,5.8q27.86,7.54,48.15,0a24.6,24.6,0,0,0,1-5.75v-.05c0-.53,0-1.07,0-1.6S58.78,31.43,58.74,30.9Z" fill="#fff" fill-opacity="0.3"/>
    </g>
    <path d="M44.09,72a2.05,2.05,0,0,0-2,2,1.92,1.92,0,0,0,.6,1.4,1.83,1.83,0,0,0,1.4.6,2.05,2.05,0,0,0,2-2,1.82,1.82,0,0,0-.6-1.4,1.91,1.91,0,0,0-1.4-.6m6-4a2.91,2.91,0,0,0-3-3,3,3,0,0,0-3,3,2.78,2.78,0,0,0,.9,2.1,2.88,2.88,0,0,0,2.1.9,2.92,2.92,0,0,0,2.15-.9,2.85,2.85,0,0,0,.85-2.1m-16.8,5.15A3.8,3.8,0,0,0,32.09,76a4,4,0,0,0,6.85,2.8A3.8,3.8,0,0,0,40.09,76a3.93,3.93,0,0,0-4-4A3.8,3.8,0,0,0,33.29,73.15Z" fill="#fff" fill-opacity="0.1"/>
  </g>
</svg>
