<svg xmlns="http://www.w3.org/2000/svg" viewBox="0 0 67.13 95.31">
  <g>
    <g>
      <path d="M11.25,92q-.55,2.55,2.1,3.35a8.76,8.76,0,0,0,4.85-1.25q3.86-2.1,5.45-7.6A25.51,25.51,0,0,1,17.4,83.8a21.41,21.41,0,0,1-2.65-2A12.71,12.71,0,0,1,11.25,92M54.1,74.5q0,4.75-4.8,8.3a13.19,13.19,0,0,1,3.25,7.85A2.73,2.73,0,0,0,56.3,91a8.87,8.87,0,0,0,2.4-4.55q1.24-5.65-4.6-12.35Z" fill="#e0d1af"/>
      <path d="M13.3,76.6a17.58,17.58,0,0,1,1.45,5.25,21.41,21.41,0,0,0,2.65,2,25.51,25.51,0,0,0,6.25,2.65,35.07,35.07,0,0,0,1.1-9.85,13,13,0,0,0-11.45,0m36,6.2q4.8-3.55,4.8-8.3v-.4A48,48,0,0,0,50,70a13.08,13.08,0,0,0-7.6,8.55A15.56,15.56,0,0,1,49.3,82.8Z" fill="#d4c6a6"/>
    </g>
    <g>
      <path d="M17.4,18.4a20.72,20.72,0,0,1,15.2-6.3,20.72,20.72,0,0,1,15.2,6.3,20.74,20.74,0,0,1,6.3,14.7V31.6a20.72,20.72,0,0,0-6.3-15.2,20.72,20.72,0,0,0-15.2-6.3,20.72,20.72,0,0,0-15.2,6.3,20.72,20.72,0,0,0-6.3,15.2v1.5A20.74,20.74,0,0,1,17.4,18.4Z" fill="#eee1c5"/>
      <path d="M32.6,12.1a20.72,20.72,0,0,0-15.2,6.3,20.74,20.74,0,0,0-6.3,14.7V72.25q.15,5.3,6.3,9a28.94,28.94,0,0,0,15.2,3.8,28.94,28.94,0,0,0,15.2-3.8q6.15-3.75,6.3-9V33.1a20.74,20.74,0,0,0-6.3-14.7A20.72,20.72,0,0,0,32.6,12.1Z" fill="#e0d1af"/>
    </g>
    <path d="M35.8,41.8a2.53,2.53,0,0,0-.7,1.8,2.37,2.37,0,0,0,.7,1.75,2.45,2.45,0,0,0,1.8.75,2.56,2.56,0,0,0,2.5-2.5,2.45,2.45,0,0,0-.75-1.8,2.37,2.37,0,0,0-1.75-.7A2.53,2.53,0,0,0,35.8,41.8Z" fill="#af9f7a"/>
    <path d="M28.75,28.15v0H28.6a.62.62,0,0,0-.25,0,4.8,4.8,0,0,0-3.15,1.4,5,5,0,0,0-1.4,3.5,4.64,4.64,0,0,0,1.4,3.4A4.82,4.82,0,0,0,28.6,38h18a4.58,4.58,0,0,0,3.3-1.5,4.48,4.48,0,0,0,1.5-3.4,4.8,4.8,0,0,0-1.5-3.5,4.61,4.61,0,0,0-2.7-1.4,6.9,6.9,0,0,0-.75,0h-.15v0Z" fill="#af9f7a"/>
    <path d="M62.45,54.35q-4,7.15-10,3.45l-4.6,8a.33.33,0,0,0,.3,0q12.6,1.91,18.6-9.1a2.56,2.56,0,0,0,.25-1.9,2.68,2.68,0,0,0-1.2-1.5A2.52,2.52,0,0,0,64,53.1a2.65,2.65,0,0,0-1.5,1.25M13,54.7a.51.51,0,0,0-.3.1Q.85,59.45,1.15,72A2.48,2.48,0,0,0,3.7,74.45a2.3,2.3,0,0,0,1.75-.75,2.53,2.53,0,0,0,.7-1.8Q6,63.7,13,63.9Z" fill="#e0d1af"/>
    <path d="M45.6,74.55A2.05,2.05,0,1,0,46.2,76a2,2,0,0,0-.6-1.45M38.1,79.9a4,4,0,1,0-2.8,1.15,3.8,3.8,0,0,0,2.8-1.15M49.9,69.3a2.9,2.9,0,1,0-.85,2A2.79,2.79,0,0,0,49.9,69.3Z" fill="#fff" fill-opacity="0.1"/>
    <g>
      <path d="M32.6,0a31.23,31.23,0,0,0-23,9.55A31,31,0,0,0,.05,30.75c0,.6,0,1.2,0,1.8s0,1.18.05,1.75A34.92,34.92,0,0,0,.8,40a31.47,31.47,0,0,0,8.8,15.7,31.33,31.33,0,0,0,23,9.5,31.67,31.67,0,0,0,23.1-9.5A31.68,31.68,0,0,0,64.45,40a38.6,38.6,0,0,0,.7-5.65c0-.57,0-1.15,0-1.75s0-1.2,0-1.8A31.19,31.19,0,0,0,55.7,9.55,31.56,31.56,0,0,0,32.6,0M5.05,34.3c0-.57,0-1.15,0-1.75s0-1.2,0-1.8a26.21,26.21,0,0,1,8.1-17.65A26.42,26.42,0,0,1,32.6,5a26.74,26.74,0,0,1,19.55,8.1,26.41,26.41,0,0,1,8,17.65c0,.6.05,1.2.05,1.8s0,1.18-.05,1.75A27.89,27.89,0,0,1,59.3,40,26.65,26.65,0,0,1,52.15,52.1a26.81,26.81,0,0,1-19.55,8,26.49,26.49,0,0,1-19.45-8A27,27,0,0,1,6,40,25.94,25.94,0,0,1,5.05,34.3Z" fill="#fff"/>
      <path d="M5,32.55c0,.6,0,1.18,0,1.75A25.94,25.94,0,0,0,6,40a27,27,0,0,0,7.2,12.15,26.49,26.49,0,0,0,19.45,8,26.81,26.81,0,0,0,19.55-8A26.65,26.65,0,0,0,59.3,40a27.89,27.89,0,0,0,.85-5.65c0-.57.05-1.15.05-1.75s0-1.2-.05-1.8a26.41,26.41,0,0,0-8-17.65A26.74,26.74,0,0,0,32.6,5a26.42,26.42,0,0,0-19.45,8.1,26.21,26.21,0,0,0-8.1,17.65c0,.6,0,1.2,0,1.8M14.9,14.9l0-.05A24,24,0,0,1,32.6,7.5a24.28,24.28,0,0,1,17.8,7.4,24,24,0,0,1,7.25,16c0,.53.05,1.08.05,1.65s0,1.07-.05,1.6v.05A25.13,25.13,0,0,1,56.7,40q-20.3,7.54-48.15,0a27,27,0,0,1-1-5.8c0-.53,0-1.07,0-1.6s0-1.12,0-1.65A23.8,23.8,0,0,1,14.9,14.9Z" fill="#fff" fill-opacity="0.2"/>
      <path d="M15,14.85l0,.05a23.8,23.8,0,0,0-7.35,16c0,.53,0,1.08,0,1.65s0,1.07,0,1.6a27,27,0,0,0,1,5.8q27.86,7.54,48.15,0a25.13,25.13,0,0,0,.95-5.75v-.05c0-.53.05-1.07.05-1.6s0-1.12-.05-1.65a24,24,0,0,0-7.25-16A24.28,24.28,0,0,0,32.6,7.5,24,24,0,0,0,15,14.85Z" fill="#fff" fill-opacity="0.3"/>
    </g>
  </g>
</svg>
