<svg xmlns="http://www.w3.org/2000/svg" viewBox="0 0 69.94 97.63">
  <g>
    <g>
      <path d="M34.36,94.05a10.93,10.93,0,0,0,1.3-7,30.86,30.86,0,0,1-10.4-1.85,12.76,12.76,0,0,1,2,10.4c.5,1.67,1.65,2.28,3.45,1.85a8.7,8.7,0,0,0,3.6-3.45m9.5.8Q48.26,92,49.21,84.6A29,29,0,0,1,39.66,87a13.71,13.71,0,0,1-3.15,6.45,2.72,2.72,0,0,0,2.4,2.9A8.32,8.32,0,0,0,43.86,94.85Z" fill="#e0d1af"/>
      <path d="M31.26,75.6a13.19,13.19,0,0,0-9.9,5.75,18,18,0,0,1,3.9,3.9,30.86,30.86,0,0,0,10.4,1.85q-.55-4.95-4.4-11.5m18,9a41.11,41.11,0,0,0,.1-7.6,13.6,13.6,0,0,0-11.4.75A15.21,15.21,0,0,1,39.66,87,29,29,0,0,0,49.21,84.6Z" fill="#d4c6a6"/>
    </g>
    <path d="M51,55.25a.58.58,0,0,0-.25,0l4.55,8q5.89-3.64,10,3.5a2.26,2.26,0,0,0,1.5,1.2,2,2,0,0,0,1.85-.2,2.44,2.44,0,0,0,1.2-1.55,2.07,2.07,0,0,0-.2-1.85q-6-11.06-18.6-9.15m-31.8,0a.44.44,0,0,0-.25,0Q6.36,53.35.36,64.35a2.27,2.27,0,0,0-.25,1.9,2.66,2.66,0,0,0,1.2,1.55,2.4,2.4,0,0,0,1.9.2,2.49,2.49,0,0,0,1.45-1.2q4.05-7.15,10-3.5Z" fill="#e0d1af"/>
    <g>
      <path d="M15,33.1a20.74,20.74,0,0,1,6.3-14.7,20.7,20.7,0,0,1,15.2-6.3,20.72,20.72,0,0,1,15.2,6.3A20.83,20.83,0,0,1,58,33.1V31.6a20.72,20.72,0,0,0-6.3-15.2,20.72,20.72,0,0,0-15.2-6.3,20.7,20.7,0,0,0-15.2,6.3A20.72,20.72,0,0,0,15,31.6Z" fill="#eee1c5"/>
      <path d="M21.26,18.4A20.74,20.74,0,0,0,15,33.1V72.25q.15,5.3,6.3,9a28.91,28.91,0,0,0,15.2,3.8,28.94,28.94,0,0,0,15.2-3.8q6.15-3.75,6.3-9V33.1a20.83,20.83,0,0,0-6.3-14.7,20.72,20.72,0,0,0-15.2-6.3A20.7,20.7,0,0,0,21.26,18.4Z" fill="#e0d1af"/>
    </g>
    <path d="M46.56,77.45A2.05,2.05,0,1,0,46,76a2,2,0,0,0,.6,1.45M42,79.9a4,4,0,0,0,0-5.6,4,4,0,1,0,0,5.6m11.8-10.6a2.83,2.83,0,0,0-.85-2,2.9,2.9,0,1,0,0,4.1A2.83,2.83,0,0,0,53.76,69.3Z" fill="#fff" fill-opacity="0.1"/>
    <path d="M34.56,40.7a.93.93,0,0,0-.1.75A4.7,4.7,0,0,0,36.36,44a8,8,0,0,0,5.1,1.65,7.94,7.94,0,0,0,5-1.65,6.66,6.66,0,0,0,2-2.45,1.1,1.1,0,0,0,0-.8,1.09,1.09,0,0,0-.6-.5.87.87,0,0,0-.8,0,.73.73,0,0,0-.5.55,4.63,4.63,0,0,1-1.3,1.65,6.17,6.17,0,0,1-3.8,1.2,6.08,6.08,0,0,1-3.85-1.2,3.42,3.42,0,0,1-1.2-1.6A.77.77,0,0,0,36,40.3a1.25,1.25,0,0,0-.85-.1.75.75,0,0,0-.55.5M32.21,28.2a4.8,4.8,0,0,0-3.15,1.4,5,5,0,0,0-1.4,3.5,4.6,4.6,0,0,0,1.4,3.4,4.8,4.8,0,0,0,3.4,1.5h18a4.62,4.62,0,0,0,3.3-1.5,4.48,4.48,0,0,0,1.5-3.4,4.8,4.8,0,0,0-1.5-3.5,4.61,4.61,0,0,0-2.7-1.4,6.9,6.9,0,0,0-.75-.05h-.15v.05H32.61v-.05h-.15A.58.58,0,0,0,32.21,28.2Z" fill="#af9f7a"/>
    <g>
      <path d="M36.46,0a31.23,31.23,0,0,0-23,9.55,31,31,0,0,0-9.55,21.2c0,.6-.05,1.2-.05,1.8s0,1.18.05,1.75A34.92,34.92,0,0,0,4.66,40a31.47,31.47,0,0,0,8.8,15.7,31.33,31.33,0,0,0,23,9.5,31.67,31.67,0,0,0,23.1-9.5A31.68,31.68,0,0,0,68.31,40,40,40,0,0,0,69,34.3c0-.57,0-1.15,0-1.75s0-1.2,0-1.8a31.19,31.19,0,0,0-9.45-21.2A31.56,31.56,0,0,0,36.46,0M8.91,34.3c0-.57-.05-1.15-.05-1.75s0-1.2.05-1.8A26.21,26.21,0,0,1,17,13.1,26.41,26.41,0,0,1,36.46,5,26.76,26.76,0,0,1,56,13.1a26.41,26.41,0,0,1,8,17.65c0,.6,0,1.2,0,1.8s0,1.18,0,1.75A28.6,28.6,0,0,1,63.16,40,26.74,26.74,0,0,1,56,52.1a26.83,26.83,0,0,1-19.55,8A26.48,26.48,0,0,1,17,52.1,27,27,0,0,1,9.81,40,25.94,25.94,0,0,1,8.91,34.3Z" fill="#fff"/>
      <path d="M8.86,32.55c0,.6,0,1.18.05,1.75A25.94,25.94,0,0,0,9.81,40,27,27,0,0,0,17,52.1a26.48,26.48,0,0,0,19.45,8A26.83,26.83,0,0,0,56,52.1,26.74,26.74,0,0,0,63.16,40,28.6,28.6,0,0,0,64,34.3c0-.57,0-1.15,0-1.75s0-1.2,0-1.8A26.41,26.41,0,0,0,56,13.1,26.76,26.76,0,0,0,36.46,5,26.41,26.41,0,0,0,17,13.1a26.21,26.21,0,0,0-8.1,17.65c0,.6-.05,1.2-.05,1.8m9.9-17.65,0-.05A24,24,0,0,1,36.46,7.5a24.3,24.3,0,0,1,17.8,7.4,24,24,0,0,1,7.25,16c0,.53.05,1.08.05,1.65s0,1.07-.05,1.6v.05A25.13,25.13,0,0,1,60.56,40q-20.31,7.54-48.15,0a26.44,26.44,0,0,1-1-5.8c0-.53-.05-1.07-.05-1.6s0-1.12.05-1.65A23.71,23.71,0,0,1,18.76,14.9Z" fill="#fff" fill-opacity="0.2"/>
      <path d="M18.81,14.85l0,.05a23.71,23.71,0,0,0-7.35,16c0,.53-.05,1.08-.05,1.65s0,1.07.05,1.6a26.44,26.44,0,0,0,1,5.8q27.84,7.54,48.15,0a25.13,25.13,0,0,0,.95-5.75v-.05c0-.53.05-1.07.05-1.6s0-1.12-.05-1.65a24,24,0,0,0-7.25-16,24.3,24.3,0,0,0-17.8-7.4A24,24,0,0,0,18.81,14.85Z" fill="#fff" fill-opacity="0.3"/>
    </g>
  </g>
</svg>
