<svg xmlns="http://www.w3.org/2000/svg" viewBox="0 0 66.29 91.95">
  <g>
    <g>
      <path d="M13.64,75l-.3,1.55a14.45,14.45,0,0,0,5.15,4.9,23.26,23.26,0,0,0,3.6,1.8l.7-1.75a26.19,26.19,0,0,1-4.3-2A14.48,14.48,0,0,1,13.64,75m37.7,2.7a18.43,18.43,0,0,1-2.45,1.75,24.58,24.58,0,0,1-8,3.1l.2,2a25.74,25.74,0,0,0,7.85-3,21.8,21.8,0,0,0,2.3-1.6Z" fill="#d4c6a6"/>
      <path d="M18.49,18.55a20.72,20.72,0,0,1,15.2-6.3,20.7,20.7,0,0,1,15.2,6.3,20.74,20.74,0,0,1,6.3,14.7v-1.5a20.72,20.72,0,0,0-6.3-15.2,20.7,20.7,0,0,0-15.2-6.3,20.72,20.72,0,0,0-15.2,6.3,20.72,20.72,0,0,0-6.3,15.2v1.5A20.83,20.83,0,0,1,18.49,18.55Z" fill="#eee1c5"/>
      <path d="M33.69,12.25a20.72,20.72,0,0,0-15.2,6.3,20.83,20.83,0,0,0-6.3,14.7V53.7c-.7.43-1.38.9-2,1.4-.36.27-.71.55-1.05.85Q1.74,62,0,72.5a2.79,2.79,0,0,0,.55,2.2,2.78,2.78,0,0,0,1.9,1.2,2.95,2.95,0,0,0,3.45-2.45q1.15-7.1,7-9.6A115.38,115.38,0,0,1,10.39,92h8.35l3.35-8.7a23.26,23.26,0,0,1-3.6-1.8,14.45,14.45,0,0,1-5.15-4.9l.3-1.55a14.48,14.48,0,0,0,4.85,4.45,26.19,26.19,0,0,0,4.3,2,31.92,31.92,0,0,0,10.9,1.75,34.62,34.62,0,0,0,7.15-.7,24.58,24.58,0,0,0,8-3.1,18.43,18.43,0,0,0,2.45-1.75l-.15,2.15a21.8,21.8,0,0,1-2.3,1.6,25.74,25.74,0,0,1-7.85,3l.9,7.45h8.35a143.58,143.58,0,0,1,3.2-22.7c.27-1.13.52-2.27.75-3.4a13,13,0,0,1,1.2,7.5,3,3,0,0,0,.65,2.15,3.15,3.15,0,0,0,2.1,1.1,2.78,2.78,0,0,0,2.1-.65,2.63,2.63,0,0,0,1.1-2q1-9.86-3.7-17.25a12.6,12.6,0,0,0-.75-1.15,24.59,24.59,0,0,0-1.75-2.15V33.25a20.74,20.74,0,0,0-6.3-14.7A20.7,20.7,0,0,0,33.69,12.25Z" fill="#e0d1af"/>
    </g>
    <path d="M32.64,39a1,1,0,0,0-.1.75,4.75,4.75,0,0,0,1.9,2.55,8,8,0,0,0,5.1,1.65,7.92,7.92,0,0,0,5.05-1.65,6.66,6.66,0,0,0,1.95-2.45,1.1,1.1,0,0,0,0-.8,1,1,0,0,0-.6-.5.87.87,0,0,0-.8,0,.77.77,0,0,0-.5.55,4.52,4.52,0,0,1-1.3,1.65,6.7,6.7,0,0,1-7.65,0,3.42,3.42,0,0,1-1.2-1.6.73.73,0,0,0-.45-.55,1.24,1.24,0,0,0-.85-.1.77.77,0,0,0-.55.5m-2.35-12.5a4.8,4.8,0,0,0-3.15,1.4,5,5,0,0,0-1.4,3.5,4.64,4.64,0,0,0,1.4,3.4,4.82,4.82,0,0,0,3.4,1.5H48.59a4.58,4.58,0,0,0,3.3-1.5,4.48,4.48,0,0,0,1.5-3.4,4.8,4.8,0,0,0-1.5-3.5,4.61,4.61,0,0,0-2.7-1.4,6.59,6.59,0,0,0-.75-.05h-.15v.05H30.69V26.4h-.15A.62.62,0,0,0,30.29,26.45Z" fill="#af9f7a"/>
    <path d="M42.09,74a1.92,1.92,0,0,0,.6,1.4,1.83,1.83,0,0,0,1.4.6,2.05,2.05,0,0,0,2-2,1.82,1.82,0,0,0-.6-1.4,1.91,1.91,0,0,0-1.4-.6,2.05,2.05,0,0,0-2,2m-6,6a4,4,0,0,0,4-4,3.93,3.93,0,0,0-4-4,4,4,0,0,0-4,4,4.1,4.1,0,0,0,4,4M49.24,65.85A3,3,0,0,0,47.09,65a3,3,0,0,0-3,3,2.78,2.78,0,0,0,.9,2.1,2.88,2.88,0,0,0,2.1.9,2.92,2.92,0,0,0,2.15-.9,2.85,2.85,0,0,0,.85-2.1A3,3,0,0,0,49.24,65.85Z" fill="#fff" fill-opacity="0.1"/>
    <g>
      <path d="M10.69,9.55a31,31,0,0,0-9.55,21.2c0,.6,0,1.2,0,1.8s0,1.18,0,1.75A34.92,34.92,0,0,0,1.89,40a31.55,31.55,0,0,0,8.8,15.7,31.35,31.35,0,0,0,23,9.5,31.67,31.67,0,0,0,23.1-9.5A31.61,31.61,0,0,0,65.54,40a38.6,38.6,0,0,0,.7-5.65c0-.57.05-1.15.05-1.75s0-1.2-.05-1.8a31.19,31.19,0,0,0-9.45-21.2A31.56,31.56,0,0,0,33.69,0a31.24,31.24,0,0,0-23,9.55M7,40a25.94,25.94,0,0,1-.9-5.65c0-.57,0-1.15,0-1.75s0-1.2,0-1.8a26.21,26.21,0,0,1,8.1-17.65A26.42,26.42,0,0,1,33.69,5a26.74,26.74,0,0,1,19.55,8.1,26.37,26.37,0,0,1,8,17.65c0,.6,0,1.2,0,1.8s0,1.18,0,1.75A27.89,27.89,0,0,1,60.39,40,26.65,26.65,0,0,1,53.24,52.1a26.81,26.81,0,0,1-19.55,8,26.49,26.49,0,0,1-19.45-8A27.21,27.21,0,0,1,7,40Z" fill="#fff"/>
      <path d="M6.14,34.3A25.94,25.94,0,0,0,7,40a27.21,27.21,0,0,0,7.2,12.15,26.49,26.49,0,0,0,19.45,8,26.81,26.81,0,0,0,19.55-8A26.65,26.65,0,0,0,60.39,40a27.89,27.89,0,0,0,.85-5.65c0-.57,0-1.15,0-1.75s0-1.2,0-1.8a26.37,26.37,0,0,0-8-17.65A26.74,26.74,0,0,0,33.69,5a26.42,26.42,0,0,0-19.45,8.1,26.21,26.21,0,0,0-8.1,17.65c0,.6,0,1.2,0,1.8s0,1.18,0,1.75M16,14.9l0-.05A24,24,0,0,1,33.69,7.5a24.26,24.26,0,0,1,17.8,7.4,23.91,23.91,0,0,1,7.25,16c0,.53,0,1.08,0,1.65s0,1.07,0,1.6v.05a24.6,24.6,0,0,1-1,5.75q-20.3,7.54-48.15,0a27.67,27.67,0,0,1-1-5.8c0-.53-.05-1.07-.05-1.6s0-1.12.05-1.65A23.8,23.8,0,0,1,16,14.9Z" fill="#fff" fill-opacity="0.2"/>
      <path d="M16,14.85l0,.05a23.8,23.8,0,0,0-7.35,16c0,.53-.05,1.08-.05,1.65s0,1.07.05,1.6a27.67,27.67,0,0,0,1,5.8q27.86,7.54,48.15,0a24.6,24.6,0,0,0,1-5.75v-.05c0-.53,0-1.07,0-1.6s0-1.12,0-1.65a23.91,23.91,0,0,0-7.25-16,24.26,24.26,0,0,0-17.8-7.4A24,24,0,0,0,16,14.85Z" fill="#fff" fill-opacity="0.3"/>
    </g>
  </g>
</svg>
