<svg xmlns="http://www.w3.org/2000/svg" viewBox="0 0 66.96 95.14">
  <g>
    <g>
      <path d="M12.66,91.45a2.71,2.71,0,0,0,1.6,3.35,8.3,8.3,0,0,0,5.15-.15q4.65-1.45,7.45-7.55a25.16,25.16,0,0,1-7.7-3c-.34-.2-.65-.4-.95-.6a13.29,13.29,0,0,1-5.55,8m36.9-7.4a28.41,28.41,0,0,1-3,1.55,12.42,12.42,0,0,1,6.45,7.75c1.3,1.2,2.61,1.17,3.95-.1a8.65,8.65,0,0,0,1.4-4.85q0-4.45-4.1-8.65A14.79,14.79,0,0,1,49.56,84.05Z" fill="#e0d1af"/>
      <path d="M18.11,76.65a16.82,16.82,0,0,1,.1,6.8c.3.2.61.4.95.6a25.16,25.16,0,0,0,7.7,3,39.87,39.87,0,0,0,2.45-8.2,13.26,13.26,0,0,0-11.2-2.25m36.2,3.1a37.52,37.52,0,0,0-7.8-5.7,12.86,12.86,0,0,0-5.7,9.9,17.82,17.82,0,0,1,5.8,1.65,28.41,28.41,0,0,0,3-1.55A14.79,14.79,0,0,0,54.31,79.75Z" fill="#d4c6a6"/>
    </g>
    <path d="M50.06,54.85a.51.51,0,0,0-.3,0l2.35,8.9q6.69-2,8.7,6A2.43,2.43,0,0,0,62,71.25a2.23,2.23,0,0,0,1.85.3,2.49,2.49,0,0,0,1.55-1.2,2.27,2.27,0,0,0,.3-1.85q-3-12.2-15.6-13.65m-34.1,0a.36.36,0,0,0-.25,0Q3,56.31.11,68.45a2.18,2.18,0,0,0,.25,1.9,2.63,2.63,0,0,0,1.55,1.2,2.37,2.37,0,0,0,1.9-.3,2.54,2.54,0,0,0,1.1-1.55q2-7.95,8.7-6Z" fill="#e0d1af"/>
    <g>
      <path d="M19.16,18.4a20.7,20.7,0,0,1,15.2-6.3,20.72,20.72,0,0,1,15.2,6.3,20.83,20.83,0,0,1,6.3,14.7V31.6a20.72,20.72,0,0,0-6.3-15.2,20.72,20.72,0,0,0-15.2-6.3,20.7,20.7,0,0,0-15.2,6.3,20.72,20.72,0,0,0-6.3,15.2v1.5A20.74,20.74,0,0,1,19.16,18.4Z" fill="#eee1c5"/>
      <path d="M34.36,12.1a20.7,20.7,0,0,0-15.2,6.3,20.74,20.74,0,0,0-6.3,14.7V72.25q.15,5.3,6.3,9a28.91,28.91,0,0,0,15.2,3.8,28.94,28.94,0,0,0,15.2-3.8q6.15-3.75,6.3-9V33.1a20.83,20.83,0,0,0-6.3-14.7A20.72,20.72,0,0,0,34.36,12.1Z" fill="#e0d1af"/>
    </g>
    <path d="M33,40.15a.75.75,0,0,0-.55.5.93.93,0,0,0-.1.75A4.7,4.7,0,0,0,34.26,44a8,8,0,0,0,5.1,1.65,7.94,7.94,0,0,0,5-1.65,6.66,6.66,0,0,0,2-2.45,1.1,1.1,0,0,0,0-.8,1.09,1.09,0,0,0-.6-.5.87.87,0,0,0-.8,0,.73.73,0,0,0-.5.55,4.63,4.63,0,0,1-1.3,1.65,6.17,6.17,0,0,1-3.8,1.2,6.08,6.08,0,0,1-3.85-1.2,3.42,3.42,0,0,1-1.2-1.6.77.77,0,0,0-.45-.55A1.25,1.25,0,0,0,33,40.15Z" fill="#af9f7a"/>
    <path d="M30.51,28.2v-.05h-.15a.58.58,0,0,0-.25.05A4.8,4.8,0,0,0,27,29.6a5,5,0,0,0-1.4,3.5A4.6,4.6,0,0,0,27,36.5a4.8,4.8,0,0,0,3.4,1.5h18a4.62,4.62,0,0,0,3.3-1.5,4.48,4.48,0,0,0,1.5-3.4,4.8,4.8,0,0,0-1.5-3.5A4.61,4.61,0,0,0,49,28.2a6.9,6.9,0,0,0-.75-.05h-.15v.05Z" fill="#af9f7a"/>
    <path d="M41,77.1a3.84,3.84,0,0,0-1.15-2.8,4,4,0,1,0,0,5.6A3.84,3.84,0,0,0,41,77.1M48,76a2,2,0,1,0-.6,1.45A2,2,0,0,0,48,76m3.7-6.7a2.83,2.83,0,0,0-.85-2,2.9,2.9,0,1,0,0,4.1A2.83,2.83,0,0,0,51.66,69.3Z" fill="#fff" fill-opacity="0.1"/>
    <g>
      <path d="M34.36,0a31.23,31.23,0,0,0-23,9.55,31,31,0,0,0-9.55,21.2c0,.6-.05,1.2-.05,1.8s0,1.18.05,1.75A34.92,34.92,0,0,0,2.56,40a31.47,31.47,0,0,0,8.8,15.7,31.33,31.33,0,0,0,23,9.5,31.67,31.67,0,0,0,23.1-9.5A31.68,31.68,0,0,0,66.21,40a40,40,0,0,0,.7-5.65c0-.57,0-1.15,0-1.75s0-1.2,0-1.8a31.19,31.19,0,0,0-9.45-21.2A31.56,31.56,0,0,0,34.36,0M6.81,34.3c0-.57,0-1.15,0-1.75s0-1.2,0-1.8a26.21,26.21,0,0,1,8.1-17.65A26.41,26.41,0,0,1,34.36,5a26.76,26.76,0,0,1,19.55,8.1,26.41,26.41,0,0,1,8,17.65c0,.6.05,1.2.05,1.8s0,1.18-.05,1.75A28.6,28.6,0,0,1,61.06,40,26.74,26.74,0,0,1,53.91,52.1a26.83,26.83,0,0,1-19.55,8,26.48,26.48,0,0,1-19.45-8A27,27,0,0,1,7.71,40,25.94,25.94,0,0,1,6.81,34.3Z" fill="#fff"/>
      <path d="M6.76,32.55c0,.6,0,1.18,0,1.75A25.94,25.94,0,0,0,7.71,40a27,27,0,0,0,7.2,12.15,26.48,26.48,0,0,0,19.45,8,26.83,26.83,0,0,0,19.55-8A26.74,26.74,0,0,0,61.06,40a28.6,28.6,0,0,0,.85-5.65c0-.57.05-1.15.05-1.75s0-1.2-.05-1.8a26.41,26.41,0,0,0-8-17.65A26.76,26.76,0,0,0,34.36,5a26.41,26.41,0,0,0-19.45,8.1,26.21,26.21,0,0,0-8.1,17.65c0,.6,0,1.2,0,1.8m9.9-17.65.05-.05A24,24,0,0,1,34.36,7.5a24.3,24.3,0,0,1,17.8,7.4,24,24,0,0,1,7.25,16c0,.53.05,1.08.05,1.65s0,1.07-.05,1.6v.05A25.13,25.13,0,0,1,58.46,40q-20.31,7.54-48.15,0a26.44,26.44,0,0,1-1-5.8c0-.53-.05-1.07-.05-1.6s0-1.12.05-1.65A23.71,23.71,0,0,1,16.66,14.9Z" fill="#fff" fill-opacity="0.2"/>
      <path d="M16.71,14.85l-.05.05a23.71,23.71,0,0,0-7.35,16c0,.53-.05,1.08-.05,1.65s0,1.07.05,1.6a26.44,26.44,0,0,0,1,5.8q27.84,7.54,48.15,0a25.13,25.13,0,0,0,.95-5.75v-.05c0-.53.05-1.07.05-1.6s0-1.12-.05-1.65a24,24,0,0,0-7.25-16,24.3,24.3,0,0,0-17.8-7.4A24,24,0,0,0,16.71,14.85Z" fill="#fff" fill-opacity="0.3"/>
    </g>
  </g>
</svg>
