<svg xmlns="http://www.w3.org/2000/svg" viewBox="0 0 70 42">
  <g>
    <g>
      <path d="M5,24.75a16.11,16.11,0,0,0-4.95,11A15.54,15.54,0,0,0,1.6,42H68.85A16.7,16.7,0,0,0,70,37a15,15,0,0,0-4.55-10h0a14.5,14.5,0,0,0-5.65-3.75A22.66,22.66,0,0,0,53,8.8h0A22.1,22.1,0,0,0,36.6,2,22.36,22.36,0,0,0,20.3,8.8,21.62,21.62,0,0,0,14.1,20,16.15,16.15,0,0,0,5,24.75Z" fill="#7ab71e"/>
      <path d="M.05,35.8a16.11,16.11,0,0,1,5-11A16.15,16.15,0,0,1,14.1,20,21.62,21.62,0,0,1,20.3,8.8,22.36,22.36,0,0,1,36.6,2,22.1,22.1,0,0,1,53,8.8h0a22.66,22.66,0,0,1,6.75,14.4A14.5,14.5,0,0,1,65.4,27h0A15,15,0,0,1,70,37V36a15,15,0,0,0-4.55-11h0a14.5,14.5,0,0,0-5.65-3.75A22.66,22.66,0,0,0,53,6.8h0A22.1,22.1,0,0,0,36.6,0,22.36,22.36,0,0,0,20.3,6.8,21.62,21.62,0,0,0,14.1,18,16.15,16.15,0,0,0,5,22.75a16.34,16.34,0,0,0-5,12C0,35.13,0,35.47.05,35.8Z" fill="#8dd323"/>
    </g>
    <path d="M48,27a5.13,5.13,0,0,0-5-5,4.85,4.85,0,0,0-3.55,1.5A4.76,4.76,0,0,0,38,27a5,5,0,0,0,5,5,4.76,4.76,0,0,0,3.5-1.45A4.85,4.85,0,0,0,48,27m4.1-5.9A2.94,2.94,0,0,0,53,19,3,3,0,0,0,50,16a3.12,3.12,0,0,0-2.15.85A3,3,0,0,0,47,19,3,3,0,0,0,50,22a2.78,2.78,0,0,0,2.1-.9m-9.3-7.9A4,4,0,0,0,36,16a4,4,0,0,0,6.8,2.8,3.87,3.87,0,0,0,0-5.6Z" fill="#80be1f"/>
  </g>
</svg>
