<svg xmlns="http://www.w3.org/2000/svg" viewBox="0 0 70 52">
  <g>
    <g>
      <path d="M57.8,14H55.3V26.1h2.5V14M14.7,14H12.2V26.1h2.5Z" fill="#bf9164"/>
      <path d="M57.8,8V52H70V8.05A5.94,5.94,0,0,0,68.2,3.8,5.77,5.77,0,0,0,63.9,2a5.93,5.93,0,0,0-4.35,1.8A6,6,0,0,0,57.8,8M14.7,14V26.1H55.3V14H14.7M6.1,2A5.93,5.93,0,0,0,1.75,3.8,6,6,0,0,0,0,8V52H12.2V8.05A5.94,5.94,0,0,0,10.4,3.8,5.77,5.77,0,0,0,6.1,2Z" fill="#c99869"/>
      <path d="M57.8,6.15V8a6,6,0,0,1,1.75-4.2A5.93,5.93,0,0,1,63.9,2a5.77,5.77,0,0,1,4.3,1.8A5.94,5.94,0,0,1,70,8.05V6.15A5.93,5.93,0,0,0,68.2,1.8,5.77,5.77,0,0,0,63.9,0a5.93,5.93,0,0,0-4.35,1.8A6,6,0,0,0,57.8,6.15M12.2,14H57.8V12H12.2v2M6.1,0A5.93,5.93,0,0,0,1.75,1.8,6,6,0,0,0,0,6.15V8A6,6,0,0,1,1.75,3.8,5.93,5.93,0,0,1,6.1,2a5.77,5.77,0,0,1,4.3,1.8,5.94,5.94,0,0,1,1.8,4.25V6.15A5.93,5.93,0,0,0,10.4,1.8,5.77,5.77,0,0,0,6.1,0Z" fill="#d3ad89"/>
    </g>
    <g>
      <path d="M30,49.35,28,44.65l4.2-.55-1.15-2.8L14.5,31.55V43.8L25,50Z" fill="#c99869"/>
      <path d="M12,30.05l2.5,1.5L31.05,41.3l1.15,2.8L33,44l-1.95-4.7L12,28Z" fill="#d3ad89"/>
      <path d="M14.5,31.55,12,30.05v12.3l2.5,1.45Z" fill="#bf9164"/>
    </g>
  </g>
</svg>
