<svg xmlns="http://www.w3.org/2000/svg" viewBox="0 0 70 52">
  <g>
    <path d="M55.3,31H14.7V43.1H55.3V31M63.9,2a5.93,5.93,0,0,0-4.35,1.8A6,6,0,0,0,57.8,8V52H70V8.05A5.94,5.94,0,0,0,68.2,3.8,5.77,5.77,0,0,0,63.9,2M14.7,14V26.1H55.3V14H14.7M12.2,8.05A5.94,5.94,0,0,0,10.4,3.8,5.77,5.77,0,0,0,6.1,2,5.93,5.93,0,0,0,1.75,3.8,6,6,0,0,0,0,8V52H12.2V8.05Z" fill="#c99869"/>
    <path d="M57.8,31H55.3V43.1h2.5V31m-2.5-4.9h2.5V14H55.3V26.1M14.7,31H12.2V43.1h2.5V31m0-17H12.2V26.1h2.5Z" fill="#bf9164"/>
    <path d="M70,8.05V6.15A5.93,5.93,0,0,0,68.2,1.8,5.77,5.77,0,0,0,63.9,0a5.93,5.93,0,0,0-4.35,1.8A6,6,0,0,0,57.8,6.15V8a6,6,0,0,1,1.75-4.2A5.93,5.93,0,0,1,63.9,2a5.77,5.77,0,0,1,4.3,1.8A5.94,5.94,0,0,1,70,8.05M12.2,14H57.8V12H12.2v2m0,15v2H57.8V29H12.2M10.4,3.8a5.94,5.94,0,0,1,1.8,4.25V6.15A5.93,5.93,0,0,0,10.4,1.8,5.77,5.77,0,0,0,6.1,0,5.93,5.93,0,0,0,1.75,1.8,6,6,0,0,0,0,6.15V8A6,6,0,0,1,1.75,3.8,5.93,5.93,0,0,1,6.1,2,5.77,5.77,0,0,1,10.4,3.8Z" fill="#d3ad89"/>
  </g>
</svg>
