<svg xmlns="http://www.w3.org/2000/svg" viewBox="0 0 20.91 70">
  <g>
    <path d="M1.45,3.75A6.38,6.38,0,0,0,0,7.8V70H10V7.2A6.61,6.61,0,0,0,8.55,3.75a4.48,4.48,0,0,0-7.1,0Z" fill="#acc0c1"/>
    <path d="M0,7.8a6.38,6.38,0,0,1,1.45-4,4.48,4.48,0,0,1,7.1,0A6.61,6.61,0,0,1,10,7.2V5.8a6.38,6.38,0,0,0-1.45-4,4.48,4.48,0,0,0-7.1,0A6.38,6.38,0,0,0,0,5.8Z" fill="#cfdada"/>
    <path d="M20.9,45.45a23.05,23.05,0,0,0-1.6-8.9Q14.65,24.1,10,7.3V59.75Q20.45,53.86,20.9,45.45Z" fill="#1ea7e1"/>
  </g>
</svg>
