<svg xmlns="http://www.w3.org/2000/svg" viewBox="0 0 65.01 70">
  <g>
    <path d="M10,7.8v-2a6.38,6.38,0,0,0-1.45-4,4.48,4.48,0,0,0-7.1,0A6.38,6.38,0,0,0,0,5.8v2a6.38,6.38,0,0,1,1.45-4,4.48,4.48,0,0,1,7.1,0A6.38,6.38,0,0,1,10,7.8Z" fill="#cfdada"/>
    <path d="M10,8V7.8a6.38,6.38,0,0,0-1.45-4,4.48,4.48,0,0,0-7.1,0A6.38,6.38,0,0,0,0,7.8V70H10V8Z" fill="#acc0c1"/>
    <path d="M64.75,29.05a14.82,14.82,0,0,0-1.85-3q-12.49-13.55-25.2-9.2Q23.1,21.85,10,8V42.7q13.31,8.14,29.8-3.8,12-8.59,23.1-9.2A2.43,2.43,0,0,0,64.75,29.05Z" fill="#1ea7e1"/>
    <path d="M62.9,26.05a14.82,14.82,0,0,1,1.85,3c.67-.87,0-2.53-1.85-5q-12.49-13.55-25.2-9.2Q23.1,19.85,10,6V8q13.1,13.85,27.7,8.85Q50.41,12.5,62.9,26.05Z" fill="#69c5eb"/>
  </g>
</svg>
