<svg xmlns="http://www.w3.org/2000/svg" viewBox="0 0 65 70">
  <g>
    <path d="M64.75,22a2.43,2.43,0,0,0-1.85-.65q-11.05-.6-23.1-9.2Q23.3.14,10,8.3V43q13.1-13.84,27.7-8.85Q50.41,38.5,62.9,25A14.82,14.82,0,0,0,64.75,22Z" fill="#1ea7e1"/>
    <path d="M10,7.8v-2a6.38,6.38,0,0,0-1.45-4,4.48,4.48,0,0,0-7.1,0A6.38,6.38,0,0,0,0,5.8v2a6.38,6.38,0,0,1,1.45-4,4.48,4.48,0,0,1,7.1,0A6.38,6.38,0,0,1,10,7.8Z" fill="#cfdada"/>
    <path d="M10,8.3V7.8a6.38,6.38,0,0,0-1.45-4,4.48,4.48,0,0,0-7.1,0A6.38,6.38,0,0,0,0,7.8V70H10V8.3Z" fill="#acc0c1"/>
    <path d="M10,7.8v.5Q23.31.15,39.8,12.1q12,8.6,23.1,9.2a2.43,2.43,0,0,1,1.85.65,2.1,2.1,0,0,0,0-2,2.43,2.43,0,0,0-1.85-.65q-11.05-.6-23.1-9.2Q23.3-1.86,10,6.3Z" fill="#69c5eb"/>
  </g>
</svg>
