<svg xmlns="http://www.w3.org/2000/svg" viewBox="0 0 32 37">
  <g>
    <path d="M10.55,27.15A22,22,0,0,0,.8,21.75L0,23.8a21.86,21.86,0,0,1,10.55,5.35,38.45,38.45,0,0,0,2.8-14.8,39.32,39.32,0,0,1-2.8,12.8m.7-24.45L12.2,2a37.29,37.29,0,0,1,9.7,23.8,13.46,13.46,0,0,1,9.4-3.15,10.65,10.65,0,0,1,.7-1.2L30.85,20.2a14.88,14.88,0,0,0-9,3.6A37.29,37.29,0,0,0,12.2,0L10.55,1.15C10.78,1.65,11,2.17,11.25,2.7Z" fill="#8dd323"/>
    <path d="M11.25,2.7a27.44,27.44,0,0,1,2.1,11.65,38.45,38.45,0,0,1-2.8,14.8A21.86,21.86,0,0,0,0,23.8a6.25,6.25,0,0,1,.45.85A55.22,55.22,0,0,1,5.25,37H26.4a38.37,38.37,0,0,1,4.9-14.35,13.46,13.46,0,0,0-9.4,3.15A37.29,37.29,0,0,0,12.2,2Z" fill="#80be1f"/>
  </g>
</svg>
