<svg xmlns="http://www.w3.org/2000/svg" viewBox="0 0 39 30">
  <g>
    <path d="M25.6,20.65V18.1q-2.85.2-6.1.2t-6.1-.2v2.55q2.85.2,6.1.2T25.6,20.65Z" fill="#e1d7bf"/>
    <path d="M25.6,30V20.65q-2.85.2-6.1.2t-6.1-.2V30Z" fill="#efebdc"/>
    <path d="M5.7,4.1A13.45,13.45,0,0,0,.55,10.7,10.8,10.8,0,0,0,0,13.8v0a1.27,1.27,0,0,0,.1.5,9,9,0,0,1,.9-3,13.92,13.92,0,0,1,4.7-5.5,23.15,23.15,0,0,1,13.8-4.1,23,23,0,0,1,13.8,4.1,14.33,14.33,0,0,1,4.75,5.5,10,10,0,0,1,.85,3,1.27,1.27,0,0,0,.1-.5v0a11.89,11.89,0,0,0-.5-3.1,13.74,13.74,0,0,0-5.2-6.6A23,23,0,0,0,19.5,0,23.15,23.15,0,0,0,5.7,4.1Z" fill="#bd8853"/>
    <path d="M5.7,14.45a29.65,29.65,0,0,0,7.7,2,50.77,50.77,0,0,0,6.1.35,50.77,50.77,0,0,0,6.1-.35,28.93,28.93,0,0,0,7.7-2,12.18,12.18,0,0,0,4.75-3.1,14.33,14.33,0,0,0-4.75-5.5,23,23,0,0,0-13.8-4.1A23.15,23.15,0,0,0,5.7,5.85,13.92,13.92,0,0,0,1,11.35,11.72,11.72,0,0,0,5.7,14.45Z" fill="#a06d3d"/>
    <path d="M13.4,16.45a29.65,29.65,0,0,1-7.7-2A11.72,11.72,0,0,1,1,11.35a9,9,0,0,0-.9,3c.43,1,2.3,1.92,5.6,2.65a50.18,50.18,0,0,0,7.7,1.1q2.85.2,6.1.2t6.1-.2A48.94,48.94,0,0,0,33.3,17c3.3-.73,5.17-1.62,5.6-2.65a10,10,0,0,0-.85-3,12.18,12.18,0,0,1-4.75,3.1,28.93,28.93,0,0,1-7.7,2,50.77,50.77,0,0,1-6.1.35A50.77,50.77,0,0,1,13.4,16.45Z" fill="#936438"/>
  </g>
</svg>
