<svg xmlns="http://www.w3.org/2000/svg" viewBox="0 0 39 30">
  <g>
    <path d="M25.6,20.65V18.1q-2.85.2-6.1.2t-6.1-.2v2.55q2.85.2,6.1.2T25.6,20.65Z" fill="#e1d7bf"/>
    <path d="M25.6,30V20.65q-2.85.2-6.1.2t-6.1-.2V30Z" fill="#efebdc"/>
    <path d="M34.9,13.7a4.17,4.17,0,0,1,.4.35,3.52,3.52,0,0,1,1.05,2.1q2.15-.79,2.55-1.8a10,10,0,0,0-.85-3A10.32,10.32,0,0,1,34.9,13.7m-29.75.5a3.57,3.57,0,0,1-1,2.4c.47.13,1,.27,1.55.4a50.18,50.18,0,0,0,7.7,1.1q2.85.2,6.1.2t6.1-.2c1.2-.1,2.35-.22,3.45-.35a3.6,3.6,0,0,1-.15-1.05,3.36,3.36,0,0,1,.1-.85c-1.1.23-2.23.43-3.4.6a50.77,50.77,0,0,1-6.1.35,50.77,50.77,0,0,1-6.1-.35,29.65,29.65,0,0,1-7.7-2A3.07,3.07,0,0,1,5.15,14.2Z" fill="#db6314"/>
    <path d="M29,15.85a3.36,3.36,0,0,0-.1.85,3.6,3.6,0,0,0,.15,1.05c1.5-.2,2.92-.45,4.25-.75a25.91,25.91,0,0,0,3.05-.85,3.52,3.52,0,0,0-1.05-2.1,4.17,4.17,0,0,0-.4-.35,15.79,15.79,0,0,1-1.6.75,27.08,27.08,0,0,1-4.3,1.4M4.15,16.6a3.57,3.57,0,0,0,1-2.4A11.18,11.18,0,0,1,1,11.35a9,9,0,0,0-.9,3Q.65,15.66,4.15,16.6Z" fill="#ec965d"/>
    <path d="M30,14.05a3.46,3.46,0,0,0-1,1.8,27.08,27.08,0,0,0,4.3-1.4,15.79,15.79,0,0,0,1.6-.75A3.51,3.51,0,0,0,32.65,13,3.62,3.62,0,0,0,30,14.05m-24.85,0a3.62,3.62,0,0,0-1.1-2.65,3.58,3.58,0,0,0-2.5-1.1H1.4a2.11,2.11,0,0,0-.7.1,1.05,1.05,0,0,0-.15.3A10.8,10.8,0,0,0,0,13.8v0a1.27,1.27,0,0,0,.1.5,9,9,0,0,1,.9-3A11.18,11.18,0,0,0,5.15,14.2v-.15m15.7-7.8a2,2,0,0,0,2,2.05,2,2,0,0,0,1.5-.6A2,2,0,0,0,25,6.25a2.05,2.05,0,0,0-2.1-2.1,2,2,0,0,0-1.45.6,2,2,0,0,0-.6,1.5m-10.75.9a3.74,3.74,0,0,0,0,5.3,3.74,3.74,0,0,0,5.3,0,3.74,3.74,0,0,0,0-5.3,3.74,3.74,0,0,0-5.3,0Z" fill="#fca66c"/>
    <path d="M1.55,10.3A14.43,14.43,0,0,1,5.7,5.85a23.15,23.15,0,0,1,13.8-4.1,23,23,0,0,1,13.8,4.1,14.33,14.33,0,0,1,4.75,5.5,10,10,0,0,1,.85,3,1.27,1.27,0,0,0,.1-.5v0a11.89,11.89,0,0,0-.5-3.1,13.74,13.74,0,0,0-5.2-6.6A23,23,0,0,0,19.5,0,23.15,23.15,0,0,0,5.7,4.1a13.39,13.39,0,0,0-5,6.3,2.11,2.11,0,0,1,.7-.1Z" fill="#ef975c"/>
    <path d="M5.7,5.85A14.43,14.43,0,0,0,1.55,10.3a3.58,3.58,0,0,1,2.5,1.1,3.62,3.62,0,0,1,1.1,2.65v.15a3.07,3.07,0,0,0,.55.25,29.65,29.65,0,0,0,7.7,2,50.77,50.77,0,0,0,6.1.35,50.77,50.77,0,0,0,6.1-.35c1.17-.17,2.3-.37,3.4-.6a3.46,3.46,0,0,1,1-1.8A3.62,3.62,0,0,1,32.65,13a3.51,3.51,0,0,1,2.25.75,10.32,10.32,0,0,0,3.15-2.35,14.33,14.33,0,0,0-4.75-5.5,23,23,0,0,0-13.8-4.1A23.15,23.15,0,0,0,5.7,5.85M9,9.8a3.76,3.76,0,0,1,3.75-3.75A3.76,3.76,0,0,1,16.5,9.8a3.76,3.76,0,0,1-3.75,3.75A3.76,3.76,0,0,1,9,9.8M21.45,7.7a2,2,0,0,1-.6-1.45,2,2,0,0,1,.6-1.5,2,2,0,0,1,1.45-.6A2.05,2.05,0,0,1,25,6.25a2,2,0,0,1-.6,1.45,2,2,0,0,1-1.5.6A2,2,0,0,1,21.45,7.7Z" fill="#e86a17"/>
  </g>
</svg>
