<svg xmlns="http://www.w3.org/2000/svg" viewBox="0 0 69.97 40">
  <g>
    <path d="M55.17,30.15l.9-6.4L45,25.7l2.15,3.05,8,1.4M23.52.1l2.6,8.75,16.35,9L44,5.45,25.07.1A3.13,3.13,0,0,0,23.52.1Z" fill="#c5d4d4"/>
    <path d="M52.12,11.45,49.82,7.8a2.63,2.63,0,0,0-1.55-1.2L44,5.45,42.47,17.8l9.65-6.35m15.8,14-8.55-2.25-3.3.6-.9,6.4,13.3,2.3,1.3-3.4a2.54,2.54,0,0,0,.15-1.5,2.75,2.75,0,0,0-.7-1.35,2.62,2.62,0,0,0-1.3-.8M0,26.35A2,2,0,0,0,0,27l26.1-18.1L23.52.1a2.71,2.71,0,0,0-1.3.8L.67,24.8A2.44,2.44,0,0,0,0,26.35Z" fill="#bccbcb"/>
    <path d="M0,27A2,2,0,0,0,.32,28l6.9,12H65.47l3-7.55-13.3-2.3-8-1.4L45,25.7l11-1.95,3.3-.6-7.25-11.7L42.47,17.8l-16.35-9L0,27m13.1-3.3a3.41,3.41,0,0,1,1.1-2.55,3.5,3.5,0,0,1,2.55-1.05,3.62,3.62,0,0,1,2.6,1.05,3.62,3.62,0,0,1,0,5.1,3.62,3.62,0,0,1-2.6,1.05,3.5,3.5,0,0,1-2.55-1.05,3.41,3.41,0,0,1-1.1-2.55m-1.5,7.65a2,2,0,0,1,1.4-.55,2,2,0,0,1,2,2,1.74,1.74,0,0,1-.6,1.35,1.8,1.8,0,0,1-1.4.6,1.92,1.92,0,0,1-1.4-.6,1.87,1.87,0,0,1-.55-1.35,2,2,0,0,1,.55-1.4M27.72,24a2.17,2.17,0,0,1,0,3.1,2.2,2.2,0,1,1,0-3.1Z" fill="#acc0c1"/>
    <path d="M28.37,25.5A2.09,2.09,0,0,0,27.72,24a2.2,2.2,0,1,0,0,3.1,2.09,2.09,0,0,0,.65-1.55M13,30.75a2,2,0,0,0-1.4.55,2,2,0,0,0-.55,1.4,1.87,1.87,0,0,0,.55,1.35,1.92,1.92,0,0,0,1.4.6,1.8,1.8,0,0,0,1.4-.6A1.74,1.74,0,0,0,15,32.7a2,2,0,0,0-2-2m1.2-9.65a3.51,3.51,0,0,0,0,5.1,3.5,3.5,0,0,0,2.55,1.05,3.62,3.62,0,0,0,2.6-1.05,3.62,3.62,0,0,0,0-5.1,3.62,3.62,0,0,0-2.6-1.05A3.5,3.5,0,0,0,14.22,21.1Z" fill="#9db3b4"/>
  </g>
</svg>
